<svg width="1200" height="160" preserveAspectRatio="xMidYMid" version="1.1" viewBox="0 0 1200 160" xml:space="preserve" xmlns="http://www.w3.org/2000/svg" xmlns:xlink="http://www.w3.org/1999/xlink"><title>WinSteward Banner Logo</title><defs><linearGradient id="linearGradient2" x1="577.7" x2="577.7" y1="121.88" y2="253.88" gradientTransform="translate(0 -107.83)" gradientUnits="userSpaceOnUse"><stop style="stop-color:#69ceff" offset="0"/><stop style="stop-color:#0100b7" offset="1"/></linearGradient></defs><path d="m888.58 10.275c-1.577 0-3.0425 0.42318-4.3594 1.1055-1.8563-0.10614-3.7669 0.87101-4.9199 3.0723l-16.834 32.83c-1.2693-1.9656-3.4257-3.4258-6.2324-3.4258-1.4003 0-2.6976 0.41622-3.8223 1.0938l-9.2754-11.01c1.2627-1.3574 2.0527-3.1662 2.0527-5.1543 0-4.1513-3.3781-7.5703-7.5215-7.5703-4.1434 0-7.5215 3.4189-7.5215 7.5703 0 4.1514 3.3781 7.5723 7.5215 7.5723 1.4003 0 2.6976-0.41616 3.8223-1.0938l9.2734 11.012c-1.2627 1.3574-2.0508 3.1642-2.0508 5.1523 0 2.1597 0.92615 4.1087 2.3867 5.4941l-8.5527 13.658c-1.5825-0.71206-3.3289-1.1172-5.1699-1.1172-4.2401 0-7.9941 2.1115-10.316 5.3301l-4.293-3.2656c0.5338-1.0384 0.86523-2.1967 0.86523-3.4375 0-4.1514-3.3781-7.5703-7.5215-7.5703-4.1434 0-7.5215 3.4189-7.5215 7.5703 0 4.1513 3.3781 7.5723 7.5215 7.5723 2.1488 0 4.0783-0.93165 5.4512-2.3965l4.4004 3.3477c-0.85545 1.7253-1.3496 3.6623-1.3496 5.7129 0 4.1524 1.9837 7.8528 5.0391 10.209l-3.8848 5.5488c-1.5006-0.92594-3.2426-1.4902-5.125-1.4902-5.4568 0-9.9024 4.498-9.9024 9.9746 0 5.4766 4.4456 9.9727 9.9024 9.9727s9.9004-4.496 9.9004-9.9727c0-2.8268-1.1973-5.378-3.0938-7.1992l3.9746-5.6797c1.779 0.9522 3.8036 1.498 5.9531 1.498 0.18462 0 0.3623-0.0251 0.54493-0.0332l-23.021 44.898c-0.2 0.2-0.20117 1.1988-0.20117 1.7988 0 2.4 1.8 4.2012 4 4.2012 1.6 0 3.0016-1.0012 3.6016-2.2012l23.564-45.811 7.9551 11.965c-1.4034 1.3793-2.2812 3.2954-2.2812 5.4062 0 4.1513 3.3782 7.5723 7.5215 7.5723 2.1465 0 4.0748-0.93052 5.4473-2.3926l10.137 14.93c-0.59825 1.2778-0.9668 2.6845-0.9668 4.1875 0 5.498 4.4612 10.014 9.9395 10.014 5.4781 0 9.9414-4.5156 9.9414-10.014 0-1.2487-0.24087-2.4396-0.66211-3.541l20.791-30.746 13.66 2.6094 18.352 35.82c0.6 1.2 2.0008 2.2012 3.8008 2.2012 2.2 0 4.1992-1.8012 4.1992-4.2012 0-0.6-0.4-1.4004-1-2.4004l-10.066-19.6c1.0065 0.34698 2.0935 0.54101 3.2402 0.54101 5.4781 0 9.9394-4.5156 9.9394-10.014 0-5.4981-4.4614-10.012-9.9394-10.012-4.513 0-8.2929 3.0826-9.5 7.2363l-0.0332-6e-3 -7.8184-15.221c7.5987-0.33221 13.686-6.6694 13.686-14.389 0-5.8643-3.5149-10.93-8.5332-13.176l2.6621-7.2051c4.3961 0.73543 8.7441-2.6072 8.7441-7.4473 0-4.1513-3.3782-7.5703-7.5215-7.5703-4.1434 0-7.5215 3.4189-7.5215 7.5703 0 2.9864 1.7614 5.5741 4.2852 6.8027l-2.6387 7.1387c-4.7202-1.311-9.7379-0.13057-13.422 3.2734l-1.7246-1.3652c1.3812-1.7214 2.2441-3.8771 2.2441-6.2461 2e-5 -5.4981-4.4614-10.014-9.9394-10.014-0.71892 0-1.4096 0.10367-2.084 0.25196l-11.496-22.385c1.9037-1.8418 3.1074-4.4322 3.1074-7.2949 0-5.4915-4.3672-10.047-9.7871-10.047zm-388.86 3.6777c-0.825 0-1.6246 0.30039-2.2246 0.90039l-51.801 39.201c-1 0.6-1.5996 1.9984-1.5996 3.3984 0 2.2 1.8012 4 4.2012 4 1 0 1.5996-0.4 2.5996-1l44.6-33.6v115c0 2.4 1.9992 4.2012 4.1992 4.2012 2.4 0 4.2012-1.8012 4.2012-4.2012v-115l45 33.6c0.4 0.6 1.6004 1 2.4004 1 2.4 0 4-1.8 4-4 0-1.4-0.60039-2.7984-1.4004-3.3984l-51.801-39.201c-0.7-0.6-1.55-0.90039-2.375-0.90039zm-263.63 0.0391c-3.2715-0.0254-6.3965 2.5371-6.3965 6.6621v121.2c0 2.4 1.8012 4.2012 4.2012 4.2012h90c2.4 0 4-1.8012 4-4.2012v-123.6c0-2.4-1.6-4.1992-4-4.1992s-4.2012 1.7992-4.2012 4.1992v109.8l-78.199-111c-1.425-2.1-3.4414-3.0473-5.4043-3.0625zm-214 0.0625c-2.2 0-4.1992 1.7992-4.1992 4.1992v122.2c0 3.2 2.6 5.6016 5 5.6016 1.4 0 2.7992-0.60156 4.1992-1.6016l47.201-40.6 47.398 40.6c1.2 1 2.6 1.6016 4 1.6016 2.4 0 4.8008-2.4016 4.8008-5.6016v-122.2c0-2.4-1.8-4.1992-4-4.1992-2.4 0-4.1992 1.7992-4.1992 4.1992v33.6l-48 41.201-48-41.201v-33.6c0-2.4-2.0012-4.1992-4.2012-4.1992zm136.8 0c-2.2 0-4.2012 1.7992-4.2012 4.1992 0 2.2 2.0012 4 4.2012 4h17v115.6h-17c-2.2 0-4.2012 1.8-4.2012 4 0 2.4 2.0012 4.2012 4.2012 4.2012h42.6c2.2 0 4-1.8012 4-4.2012 0-2.2-1.8-4-4-4h-17.199v-115.6h17.199c2.2 0 4-1.8 4-4 0-2.4-1.8-4.1992-4-4.1992zm234.8 0c-24 0-43.6 19.598-43.6 43.398 0 10 4.4012 21.801 15.201 30.801l59.398 49.6h-76.199c-2.2 0-4.1992 1.8-4.1992 4 0 2.4 1.9992 4.2012 4.1992 4.2012h82.801c6 0 8.6-6.6004 4-10.4l-63-52.201 60-59.799c3.8-4 1.1988-9.5996-4.2012-9.5996zm184 0c-2.4 0-4.1992 1.8-4.1992 4v123.8c0 2.4 1.7992 4.2012 4.1992 4.2012h82.201c2.4 0 4-1.8012 4-4.2012 0-2.2-1.6-4-4-4h-78v-41h74.799c2.2 0 4.2012-1.8 4.2012-4 0-2.6-2.0012-4.1992-4.2012-4.1992l-61.799-0.20117 64.799-64.799c3.8-4 1.2008-9.5996-4.1992-9.5996zm112.8 0c-2.2 0-4.1992 1.7992-4.1992 4.1992v122.2c0 3.2 2.6 5.6016 5 5.6016 1.4 0 2.7992-0.60156 4.1992-1.6016l47.199-40.6 47.4 40.6c1.2 1 2.6 1.6016 4 1.6016 2.4 0 4.8008-2.4016 4.8008-5.6016v-122.2c0-2.4-1.8-4.1992-4-4.1992-2.4 0-4.2012 1.7992-4.2012 4.1992v33.6l-48 41.201-48-41.201v-33.6c0-2.4-1.9992-4.1992-4.1992-4.1992zm282.6 0c-2.6 0-4 1.1988-4 3.7988v124c0 2.4 2.0012 4.2012 4.2012 4.2012s4.1992-1.8012 4.1992-4.2012v-39.4h27.799c6.8 0 13.4-1.5984 19.4-4.3984l31.4 46.398c0.8 0.8 2.0004 1.6016 3.4004 1.6016 2.2 0 4.1992-2.0012 4.1992-4.2012 0-1-0.2-1.6004-1-2.4004l-31-45.799c10.8-8 17.8-21 17.6-35.4 0.2-24.4-19.6-44.199-44-44.199zm115.4 0c-2.4 0-4.1992 1.8-4.1992 4v123.8c0 2.4 1.7992 4.2012 4.1992 4.2012h33c36 0 60.6-26 60.6-66 0-39.8-24.6-66-60.6-66zm-199.92 0.44922c3.0577 0 5.5586 2.5364 5.5586 5.8203 0 1.2257-0.34757 2.3469-0.94336 3.2715l-4.666-9.0859c0.0174-1.7e-4 0.0334-6e-3 0.0508-6e-3zm-494.88 7.75h28l-55.398 55.6c-5.8-6.6-7.8008-13.8-7.8008-20.4 0-20 15.199-35.199 35.199-35.199zm188.2 0h67.4l-67.4 67.6zm401.4 0h21.998c20.8 0 35.801 15.2 35.801 36 0 12.2-5.2008 22.601-13.801 28.801zm109.4 0h28.801c32.4 0 52.4 21.201 52.4 57.801s-20 57.799-52.4 57.799h-28.801zm-255.03 3.1894c1.8394 0 3.293 1.4534 3.293 3.3438 0 1.8903-1.4534 3.3438-3.293 3.3438-1.8394 0-3.2949-1.4536-3.2949-3.3438s1.4555-3.3438 3.2949-3.3438zm-599.57 0.81055 78.201 111.6h-78.201zm643.97 1.541c1.2181 1.1173 2.7085 1.9327 4.3594 2.3164l-1.8301 24.73-15.248-2.3164zm95.428 0.45899 42.6 63c-4.4 1.8-9.4008 2.8008-14.801 2.8008h-27.799zm-89.104 3.9805 11.73 22.877c-0.329 0.6255-0.62012 1.2736-0.81445 1.9668l-12.613-1.918zm49.16 14.582c1.8395 0 3.2949 1.4534 3.2949 3.3438s-1.4555 3.3457-3.2949 3.3457c-1.8394 0-3.2949-1.4554-3.2949-3.3457s1.4554-3.3438 3.2949-3.3438zm-81.322 1.2676c1.8394 0 3.2949 1.4555 3.2949 3.3457s-1.4556 3.3438-3.2949 3.3438-3.2949-1.4534-3.2949-3.3438 1.4555-3.3457 3.2949-3.3457zm52.605 5.8926c3.1731 0 5.7129 2.5495 5.7129 5.7852 0 1.2634-0.39577 2.416-1.0566 3.3594l-4.6953-9.1406c0.0134-9e-5 0.0257-4e-3 0.0391-4e-3zm-40.506 0.53125 16.113 2.4492-2.0547 27.771c-2.8901 0.10464-5.5422 1.151-7.666 2.8516l-1.9473-1.9883c1.0396-1.3003 1.6894-2.9258 1.6894-4.709 0-4.1514-3.3782-7.5723-7.5215-7.5723-4.1434 0-7.5215 3.4209-7.5215 7.5723 0 4.1513 3.3781 7.5703 7.5215 7.5703 1.6054 0 3.0868-0.52188 4.3105-1.3926l1.9316 1.9727c-2.137 2.3565-3.4551 5.4776-3.4551 8.9023 0 6.9393 5.3638 12.666 12.141 13.182l0.61914 18.697c-0.50388 0.0584-0.98622 0.17753-1.4648 0.3086l-29.33-43.27zm18.209 2.7656 12.418 1.8867c-0.3046 5.2721 3.4288 9.8939 8.6426 10.533l7.0703 13.787-20.283 8.1367c-1.9804-3.6484-5.6184-6.2574-9.8848-6.7988zm-33.711 0.86719c1.0269 0.53267 2.1722 0.86328 3.4024 0.86328 0.0798 0 0.15515-0.017 0.23437-0.0195l-8.4004 16.383c-0.96031-1.4886-2.1993-2.7799-3.668-3.7617zm50.596 3.4062 0.89063 1.7402c-0.39147-0.51648-0.68897-1.1023-0.89063-1.7402zm-877.13 1.1074 41.6 35.799-41.6 35.801zm96 0v71.6l-41.602-35.801zm572.4 0 41.602 35.799-41.602 35.801zm96 0v71.6l-41.6-35.801zm25.412 2.0918c1.8394 0 3.2949 1.4555 3.2949 3.3457 0 1.8902-1.4556 3.3438-3.2949 3.3438s-3.293-1.4534-3.293-3.3438c0-1.8903 1.4536-3.3457 3.293-3.3457zm111.79 3.0527c5.5824 0 10.076 4.5244 10.076 10.191 0 5.667-4.4939 10.191-10.076 10.191-0.54849 0-1.0832-0.0565-1.6074-0.14062l-7.4394-14.484c1.6274-3.4086 5.042-5.7578 9.0469-5.7578zm-11.656 0.67578 0.5586 0.44336c-0.071 0.088-0.12286 0.18433-0.19141 0.27344zm-78.869 5.2168c3.9872 0 7.2879 2.7302 8.2363 6.4629l-5.25 10.24c-0.93167 0.3497-1.9303 0.56641-2.9863 0.56641-4.7312 0-8.5352-3.8268-8.5352-8.6348 0-4.8081 3.804-8.6348 8.5352-8.6348zm29.57 3.8438c1.8394 0 3.2949 1.4556 3.2949 3.3457 0 1.8902-1.4556 3.3438-3.2949 3.3438-1.8393 0-3.293-1.4534-3.293-3.3438s1.4534-3.3457 3.293-3.3457zm48.691 7.8359c5e-3 8e-3 0.0108 0.0153 0.0156 0.0234l0.64648 1.2598-10.178 15.172-10.285-1.9648c0.13014-0.88913 0.46435-3.266-0.60156-6.3047zm-32.773 3.5586c4.9333 0 8.9024 3.992 8.9024 9.0039 0 5.0119-3.9692 9.0059-8.9024 9.0058-4.9331 0-8.9023-3.994-8.9023-9.0058 0-5.0119 3.9692-9.0039 8.9023-9.0039zm37.834 6.125 5.4277 10.594-11.15-2.1309zm-73.398 0.19922 8.9492 13.18c-0.24273 0.10297-0.48224 0.21281-0.71289 0.33789l-8.5644-12.879zm-26.656 5.5684c3.1519 0 5.6719 2.5318 5.6719 5.7461s-2.52 5.7461-5.6719 5.7461c-3.1519 0-5.6758-2.5319-5.6758-5.7461 0-3.2142 2.5239-5.7461 5.6758-5.7461zm74.732 1.1035 9.4668 1.8086-17.875 26.643c-0.75424-0.27412-1.5344-0.49187-2.3594-0.57617l-0.61915-18.689c5.3601-0.46348 9.8102-4.1902 11.387-9.1856zm50.49 2.668c3.1731 0 5.7129 2.5495 5.7129 5.7852 0 3.2357-2.5398 5.7871-5.7129 5.7871-3.1731 0-5.7129-2.5514-5.7129-5.7871 0-3.2358 2.5396-5.7852 5.7129-5.7852zm-87.129 7.5039 3.2637 4.8066c-0.53332 1.1074-1.6353 1.8516-2.9453 1.8516-1.8395 0-3.2949-1.4534-3.2949-3.3438 0-1.778 1.2929-3.1554 2.9766-3.3144zm24.867 21.826h8e-3c0.31353 0 0.61474 0.0438 0.91406 0.0918l-0.42773 0.63867zm-5.6328 6.5 2.3281 3.4297c0.3293 0.54883 0.77812 0.88635 1.2168 1.2344-1.9116-0.7539-3.2867-2.5112-3.5449-4.6641zm10.584 2.1602c-0.15338 0.27249-0.3259 0.52792-0.51953 0.76953z" style="fill:url(#linearGradient2);stroke-linecap:square;stroke-linejoin:round;stroke-width:3"/></svg>
