<?xml version="1.0" encoding="UTF-8" standalone="no"?>
<svg
   width="1200"
   height="400"
   viewBox="0 0 1200 400"
   version="1.1"
   preserveAspectRatio="xMidYMid"
   id="svg28"
   sodipodi:docname="inkscape-template_1200x400.svg"
   inkscape:version="1.3.2 (091e20ef0f, 2023-11-25)"
   xml:space="preserve"
   xmlns:inkscape="http://www.inkscape.org/namespaces/inkscape"
   xmlns:sodipodi="http://sodipodi.sourceforge.net/DTD/sodipodi-0.dtd"
   xmlns:xlink="http://www.w3.org/1999/xlink"
   xmlns="http://www.w3.org/2000/svg"
   xmlns:svg="http://www.w3.org/2000/svg"
   xmlns:rdf="http://www.w3.org/1999/02/22-rdf-syntax-ns#"
   xmlns:cc="http://creativecommons.org/ns#"
   xmlns:dc="http://purl.org/dc/elements/1.1/"><title
     id="title2">WinSteward Banner Logo</title><defs
     id="defs32"><linearGradient
       id="linearGradient1"
       inkscape:collect="always"><stop
         style="stop-color:#69ceff;stop-opacity:1;"
         offset="0"
         id="stop1" /><stop
         style="stop-color:#0100b7;stop-opacity:1;"
         offset="1"
         id="stop2" /></linearGradient><linearGradient
       inkscape:collect="always"
       xlink:href="#linearGradient1"
       id="linearGradient2"
       x1="577.70013"
       y1="121.88"
       x2="577.70013"
       y2="253.88"
       gradientUnits="userSpaceOnUse" /><linearGradient
       id="linearGradient2-7"
       x1="865.13"
       x2="585.13"
       y1="-109.02"
       y2="1200"
       gradientUnits="userSpaceOnUse"
       gradientTransform="matrix(0.1226844,0,0,0.1226844,808.58995,114.21477)"><stop
         style="stop-color:#69ceff"
         offset="0"
         id="stop1-8" /><stop
         style="stop-color:#0100b7"
         offset="1"
         id="stop2-4" /></linearGradient></defs><sodipodi:namedview
     id="namedview30"
     pagecolor="#ffffff"
     bordercolor="#666666"
     borderopacity="1.0"
     inkscape:pageshadow="2"
     inkscape:pageopacity="0.0"
     inkscape:pagecheckerboard="true"
     showgrid="false"
     inkscape:zoom="0.59994134"
     inkscape:cx="478.3801"
     inkscape:cy="245.02396"
     inkscape:window-width="1920"
     inkscape:window-height="971"
     inkscape:window-x="0"
     inkscape:window-y="40"
     inkscape:window-maximized="1"
     inkscape:current-layer="svg28"
     inkscape:showpageshadow="0"
     inkscape:deskcolor="#505050" /><path
     id="foreground"
     style="font-size:200px;line-height:1.1;font-family:Nemoy;-inkscape-font-specification:Nemoy;text-align:center;letter-spacing:0px;word-spacing:0px;text-anchor:middle;stroke-width:3;stroke-linecap:square;stroke-linejoin:round;fill-opacity:1;fill:url(#linearGradient2)"
     d="M 888.58008 118.10156 C 887.00308 118.10156 885.53759 118.52474 884.2207 119.20703 C 882.36441 119.10089 880.45382 120.07804 879.30078 122.2793 L 862.4668 155.10938 C 861.19751 153.14375 859.04113 151.68359 856.23438 151.68359 C 854.83406 151.68359 853.53676 152.09981 852.41211 152.77734 L 843.13672 141.76758 C 844.39939 140.4102 845.18945 138.60139 845.18945 136.61328 C 845.18945 132.46202 841.81138 129.04297 837.66797 129.04297 C 833.52455 129.04297 830.14648 132.4619 830.14648 136.61328 C 830.14648 140.76468 833.52455 144.18555 837.66797 144.18555 C 839.06829 144.18555 840.3656 143.76939 841.49023 143.0918 L 850.76367 154.10352 C 849.50101 155.46089 848.71289 157.26776 848.71289 159.25586 C 848.71289 161.41559 849.63904 163.36453 851.09961 164.75 L 842.54688 178.4082 C 840.96438 177.69614 839.21796 177.29102 837.37695 177.29102 C 833.13687 177.29102 829.38283 179.40248 827.06055 182.62109 L 822.76758 179.35547 C 823.30138 178.31704 823.63281 177.1588 823.63281 175.91797 C 823.63281 171.76657 820.25474 168.34766 816.11133 168.34766 C 811.96791 168.34766 808.58984 171.76657 808.58984 175.91797 C 808.58984 180.06923 811.96791 183.49023 816.11133 183.49023 C 818.26015 183.49023 820.18967 182.55858 821.5625 181.09375 L 825.96289 184.44141 C 825.10744 186.16671 824.61328 188.10375 824.61328 190.1543 C 824.61328 194.30667 826.59702 198.00714 829.65234 200.36328 L 825.76758 205.91211 C 824.26703 204.98617 822.52493 204.42188 820.64258 204.42188 C 815.18583 204.42188 810.74023 208.91986 810.74023 214.39648 C 810.74023 219.87311 815.18583 224.36914 820.64258 224.36914 C 826.09933 224.36914 830.54297 219.87311 830.54297 214.39648 C 830.54297 211.56963 829.34566 209.01852 827.44922 207.19727 L 831.42383 201.51758 C 833.20288 202.46978 835.2274 203.01562 837.37695 203.01562 C 837.56157 203.01562 837.73925 202.99049 837.92188 202.98242 L 814.90039 247.88086 C 814.70039 248.08086 814.69922 249.07969 814.69922 249.67969 C 814.69922 252.07969 816.49922 253.88086 818.69922 253.88086 C 820.29922 253.88086 821.70078 252.87969 822.30078 251.67969 L 845.86523 205.86914 L 853.82031 217.83398 C 852.41693 219.21332 851.53906 221.12935 851.53906 223.24023 C 851.53906 227.39149 854.91725 230.8125 859.06055 230.8125 C 861.20702 230.8125 863.13536 229.88198 864.50781 228.41992 L 874.64453 243.34961 C 874.04628 244.62741 873.67773 246.03408 873.67773 247.53711 C 873.67773 253.03509 878.13897 257.55078 883.61719 257.55078 C 889.09529 257.55078 893.55859 253.03518 893.55859 247.53711 C 893.55859 246.28838 893.31772 245.09749 892.89648 243.99609 L 913.6875 213.25 L 927.34766 215.85938 L 945.69922 251.67969 C 946.29922 252.87969 947.7 253.88086 949.5 253.88086 C 951.7 253.88086 953.69922 252.07969 953.69922 249.67969 C 953.69922 249.07969 953.29922 248.2793 952.69922 247.2793 L 942.63281 227.67969 C 943.63934 228.02667 944.72627 228.2207 945.87305 228.2207 C 951.35115 228.2207 955.8125 223.70512 955.8125 218.20703 C 955.8125 212.70895 951.35115 208.19531 945.87305 208.19531 C 941.3601 208.19531 937.58014 211.27795 936.37305 215.43164 L 936.33984 215.42578 L 928.52148 200.20508 C 936.12017 199.87287 942.20703 193.53564 942.20703 185.81641 C 942.20703 179.95209 938.69211 174.88659 933.67383 172.64062 L 936.33594 165.43555 C 940.73208 166.17098 945.08008 162.8283 945.08008 157.98828 C 945.08008 153.83702 941.70188 150.41797 937.55859 150.41797 C 933.41518 150.41797 930.03711 153.8369 930.03711 157.98828 C 930.03711 160.97467 931.79853 163.56234 934.32227 164.79102 L 931.68359 171.92969 C 926.96344 170.61868 921.94569 171.79912 918.26172 175.20312 L 916.53711 173.83789 C 917.91829 172.11651 918.78125 169.96083 918.78125 167.5918 C 918.78127 162.0937 914.31989 157.57812 908.8418 157.57812 C 908.12288 157.57812 907.4322 157.68179 906.75781 157.83008 L 895.26172 135.44531 C 897.16542 133.60356 898.36914 131.01309 898.36914 128.15039 C 898.36914 122.65893 894.00198 118.10352 888.58203 118.10352 L 888.58008 118.10156 z M 499.72461 121.7793 C 498.89961 121.7793 498.1 122.07969 497.5 122.67969 L 445.69922 161.88086 C 444.69922 162.48086 444.09961 163.8793 444.09961 165.2793 C 444.09961 167.47929 445.90078 169.2793 448.30078 169.2793 C 449.30078 169.2793 449.90039 168.8793 450.90039 168.2793 L 495.5 134.67969 L 495.5 249.67969 C 495.5 252.07969 497.49922 253.88086 499.69922 253.88086 C 502.09922 253.88086 503.90039 252.07969 503.90039 249.67969 L 503.90039 134.67969 L 548.90039 168.2793 C 549.30039 168.8793 550.50078 169.2793 551.30078 169.2793 C 553.70078 169.2793 555.30078 167.47929 555.30078 165.2793 C 555.30078 163.8793 554.70039 162.48086 553.90039 161.88086 L 502.09961 122.67969 C 501.39961 122.07969 500.54961 121.7793 499.72461 121.7793 z M 236.0957 121.81836 C 232.82422 121.79297 229.69922 124.35547 229.69922 128.48047 L 229.69922 249.67969 C 229.69922 252.07969 231.50039 253.88086 233.90039 253.88086 L 323.90039 253.88086 C 326.30039 253.88086 327.90039 252.07969 327.90039 249.67969 L 327.90039 126.08008 C 327.90039 123.68008 326.30039 121.88086 323.90039 121.88086 C 321.50039 121.88086 319.69922 123.68008 319.69922 126.08008 L 319.69922 235.88086 L 241.5 124.88086 C 240.075 122.78086 238.05859 121.83359 236.0957 121.81836 z M 22.099609 121.88086 C 19.899612 121.88086 17.900391 123.68008 17.900391 126.08008 L 17.900391 248.2793 C 17.900391 251.47929 20.500393 253.88086 22.900391 253.88086 C 24.300389 253.88086 25.699611 253.2793 27.099609 252.2793 L 74.300781 211.67969 L 121.69922 252.2793 C 122.89922 253.2793 124.29922 253.88086 125.69922 253.88086 C 128.09922 253.88086 130.5 251.47929 130.5 248.2793 L 130.5 126.08008 C 130.5 123.68008 128.7 121.88086 126.5 121.88086 C 124.1 121.88086 122.30078 123.68008 122.30078 126.08008 L 122.30078 159.67969 L 74.300781 200.88086 L 26.300781 159.67969 L 26.300781 126.08008 C 26.300781 123.68008 24.299607 121.88086 22.099609 121.88086 z M 158.90039 121.88086 C 156.70039 121.88086 154.69922 123.68008 154.69922 126.08008 C 154.69922 128.28008 156.70039 130.08008 158.90039 130.08008 L 175.90039 130.08008 L 175.90039 245.67969 L 158.90039 245.67969 C 156.70039 245.67969 154.69922 247.47969 154.69922 249.67969 C 154.69922 252.07969 156.70039 253.88086 158.90039 253.88086 L 201.5 253.88086 C 203.7 253.88086 205.5 252.07969 205.5 249.67969 C 205.5 247.47969 203.7 245.67969 201.5 245.67969 L 184.30078 245.67969 L 184.30078 130.08008 L 201.5 130.08008 C 203.7 130.08008 205.5 128.28008 205.5 126.08008 C 205.5 123.68008 203.7 121.88086 201.5 121.88086 L 158.90039 121.88086 z M 393.69922 121.88086 C 369.69924 121.88086 350.09961 141.47932 350.09961 165.2793 C 350.09961 175.27929 354.50079 187.08009 365.30078 196.08008 L 424.69922 245.67969 L 348.5 245.67969 C 346.3 245.67969 344.30078 247.47969 344.30078 249.67969 C 344.30078 252.07969 346.3 253.88086 348.5 253.88086 L 431.30078 253.88086 C 437.30078 253.88086 439.90078 247.28046 435.30078 243.48047 L 372.30078 191.2793 L 432.30078 131.48047 C 436.10078 127.48047 433.4996 121.88086 428.09961 121.88086 L 393.69922 121.88086 z M 577.69922 121.88086 C 575.29922 121.88086 573.5 123.68086 573.5 125.88086 L 573.5 249.67969 C 573.5 252.07969 575.29922 253.88086 577.69922 253.88086 L 659.90039 253.88086 C 662.30039 253.88086 663.90039 252.07969 663.90039 249.67969 C 663.90039 247.47969 662.30039 245.67969 659.90039 245.67969 L 581.90039 245.67969 L 581.90039 204.67969 L 656.69922 204.67969 C 658.89922 204.67969 660.90039 202.87969 660.90039 200.67969 C 660.90039 198.07969 658.89922 196.48047 656.69922 196.48047 L 594.90039 196.2793 L 659.69922 131.48047 C 663.49921 127.48047 660.89999 121.88086 655.5 121.88086 L 577.69922 121.88086 z M 690.5 121.88086 C 688.3 121.88086 686.30078 123.68008 686.30078 126.08008 L 686.30078 248.2793 C 686.30078 251.47929 688.90078 253.88086 691.30078 253.88086 C 692.70078 253.88086 694.1 253.2793 695.5 252.2793 L 742.69922 211.67969 L 790.09961 252.2793 C 791.29961 253.2793 792.69961 253.88086 794.09961 253.88086 C 796.49961 253.88086 798.90039 251.47929 798.90039 248.2793 L 798.90039 126.08008 C 798.90039 123.68008 797.10039 121.88086 794.90039 121.88086 C 792.50039 121.88086 790.69922 123.68008 790.69922 126.08008 L 790.69922 159.67969 L 742.69922 200.88086 L 694.69922 159.67969 L 694.69922 126.08008 C 694.69922 123.68008 692.7 121.88086 690.5 121.88086 z M 973.09961 121.88086 C 970.49961 121.88086 969.09961 123.07969 969.09961 125.67969 L 969.09961 249.67969 C 969.09961 252.07969 971.10078 253.88086 973.30078 253.88086 C 975.50078 253.88086 977.5 252.07969 977.5 249.67969 L 977.5 210.2793 L 1005.2988 210.2793 C 1012.0988 210.2793 1018.6992 208.68086 1024.6992 205.88086 L 1056.0996 252.2793 C 1056.8996 253.0793 1058.1 253.88086 1059.5 253.88086 C 1061.7 253.88086 1063.6992 251.87969 1063.6992 249.67969 C 1063.6992 248.67969 1063.4992 248.0793 1062.6992 247.2793 L 1031.6992 201.48047 C 1042.4992 193.48048 1049.4988 180.48006 1049.2988 166.08008 C 1049.4988 141.6801 1029.6988 121.88086 1005.2988 121.88086 L 973.09961 121.88086 z M 1088.5 121.88086 C 1086.1 121.88086 1084.3008 123.68086 1084.3008 125.88086 L 1084.3008 249.67969 C 1084.3008 252.07969 1086.1 253.88086 1088.5 253.88086 L 1121.5 253.88086 C 1157.5 253.88086 1182.0996 227.88082 1182.0996 187.88086 C 1182.0996 148.0809 1157.5 121.88086 1121.5 121.88086 L 1088.5 121.88086 z M 888.58008 122.33008 C 891.63774 122.33008 894.13867 124.86649 894.13867 128.15039 C 894.13867 129.37606 893.7911 130.49725 893.19531 131.42188 L 888.5293 122.33594 C 888.54666 122.33577 888.56268 122.33008 888.58008 122.33008 z M 393.69922 130.08008 L 421.69922 130.08008 L 366.30078 185.67969 C 360.50079 179.07969 358.5 171.87929 358.5 165.2793 C 358.5 145.27932 373.69924 130.08008 393.69922 130.08008 z M 581.90039 130.08008 L 649.30078 130.08008 L 581.90039 197.67969 L 581.90039 130.08008 z M 983.30078 130.08008 L 1005.2988 130.08008 C 1026.0988 130.08008 1041.0996 145.2801 1041.0996 166.08008 C 1041.0996 178.28007 1035.8988 188.68087 1027.2988 194.88086 L 983.30078 130.08008 z M 1092.6992 130.08008 L 1121.5 130.08008 C 1153.9 130.08008 1173.9004 151.2809 1173.9004 187.88086 C 1173.9004 224.48082 1153.9 245.67969 1121.5 245.67969 L 1092.6992 245.67969 L 1092.6992 130.08008 z M 837.66797 133.26953 C 839.50738 133.26953 840.96094 134.72296 840.96094 136.61328 C 840.96094 138.50359 839.5075 139.95703 837.66797 139.95703 C 835.82856 139.95703 834.37305 138.50348 834.37305 136.61328 C 834.37305 134.72308 835.82856 133.26953 837.66797 133.26953 z M 238.09961 134.08008 L 316.30078 245.67969 L 238.09961 245.67969 L 238.09961 134.08008 z M 882.07227 135.62109 C 883.29036 136.7384 884.78074 137.55377 886.43164 137.9375 L 884.60156 162.66797 L 869.35352 160.35156 L 882.07227 135.62109 z M 977.5 136.08008 L 1020.0996 199.08008 C 1015.6996 200.88008 1010.6988 201.88086 1005.2988 201.88086 L 977.5 201.88086 L 977.5 136.08008 z M 888.39648 140.06055 L 900.12695 162.9375 C 899.79795 163.563 899.50683 164.2111 899.3125 164.9043 L 886.69922 162.98633 L 888.39648 140.06055 z M 937.55664 154.64258 C 939.39617 154.64258 940.85156 156.09601 940.85156 157.98633 C 940.85156 159.87665 939.39605 161.33203 937.55664 161.33203 C 935.71724 161.33203 934.26172 159.87665 934.26172 157.98633 C 934.26172 156.09601 935.71712 154.64258 937.55664 154.64258 z M 856.23438 155.91016 C 858.07378 155.91016 859.5293 157.36566 859.5293 159.25586 C 859.5293 161.14606 858.07366 162.59961 856.23438 162.59961 C 854.3951 162.59961 852.93945 161.14618 852.93945 159.25586 C 852.93945 157.36554 854.39498 155.91016 856.23438 155.91016 z M 908.83984 161.80273 C 912.01295 161.80273 914.55273 164.35222 914.55273 167.58789 C 914.55273 168.85125 914.15696 170.00391 913.49609 170.94727 L 908.80078 161.80664 C 908.81416 161.80655 908.82644 161.80273 908.83984 161.80273 z M 868.33398 162.33398 L 884.44727 164.7832 L 882.39258 192.55469 C 879.5025 192.65933 876.85036 193.7057 874.72656 195.40625 L 872.7793 193.41797 C 873.81885 192.11764 874.46875 190.49219 874.46875 188.70898 C 874.46875 184.55759 871.09055 181.13672 866.94727 181.13672 C 862.80385 181.13672 859.42578 184.55759 859.42578 188.70898 C 859.42578 192.86025 862.80385 196.2793 866.94727 196.2793 C 868.5527 196.2793 870.03403 195.75742 871.25781 194.88672 L 873.18945 196.85938 C 871.05242 199.21589 869.73437 202.33696 869.73438 205.76172 C 869.73438 212.70099 875.09817 218.42811 881.875 218.94336 L 882.49414 237.64062 C 881.99026 237.69903 881.50792 237.81815 881.0293 237.94922 L 851.69922 194.67969 L 868.33398 162.33398 z M 886.54297 165.09961 L 898.96094 166.98633 C 898.65634 172.25844 902.38969 176.88026 907.60352 177.51953 L 914.67383 191.30664 L 894.39062 199.44336 C 892.41026 195.79499 888.77221 193.18593 884.50586 192.64453 L 886.54297 165.09961 z M 852.83203 165.9668 C 853.8589 166.49947 855.00422 166.83008 856.23438 166.83008 C 856.31422 166.83008 856.38953 166.81308 856.46875 166.81055 L 848.06836 183.19336 C 847.10805 181.70472 845.86909 180.41343 844.40039 179.43164 L 852.83203 165.9668 z M 903.42773 169.37305 L 904.31836 171.11328 C 903.92689 170.5968 903.62939 170.011 903.42773 169.37305 z M 26.300781 170.48047 L 67.900391 206.2793 L 26.300781 242.08008 L 26.300781 170.48047 z M 122.30078 170.48047 L 122.30078 242.08008 L 80.699219 206.2793 L 122.30078 170.48047 z M 694.69922 170.48047 L 736.30078 206.2793 L 694.69922 242.08008 L 694.69922 170.48047 z M 790.69922 170.48047 L 790.69922 242.08008 L 749.09961 206.2793 L 790.69922 170.48047 z M 816.11133 172.57227 C 817.95074 172.57227 819.40625 174.02778 819.40625 175.91797 C 819.40625 177.80817 817.95061 179.26172 816.11133 179.26172 C 814.27205 179.26172 812.81836 177.80829 812.81836 175.91797 C 812.81836 174.02766 814.27192 172.57227 816.11133 172.57227 z M 927.90234 175.625 C 933.48473 175.625 937.97852 180.14937 937.97852 185.81641 C 937.97852 191.48344 933.4846 196.00781 927.90234 196.00781 C 927.35385 196.00781 926.81919 195.95134 926.29492 195.86719 L 918.85547 181.38281 C 920.48283 177.97417 923.89747 175.625 927.90234 175.625 z M 916.24609 176.30078 L 916.80469 176.74414 C 916.73373 176.83213 916.68183 176.92847 916.61328 177.01758 L 916.24609 176.30078 z M 837.37695 181.51758 C 841.36417 181.51758 844.66487 184.24777 845.61328 187.98047 L 840.36328 198.2207 C 839.43161 198.5704 838.43295 198.78711 837.37695 198.78711 C 832.64576 198.78711 828.8418 194.96034 828.8418 190.15234 C 828.8418 185.34422 832.64576 181.51758 837.37695 181.51758 z M 866.94727 185.36133 C 868.78666 185.36133 870.24219 186.81696 870.24219 188.70703 C 870.24219 190.59723 868.78654 192.05078 866.94727 192.05078 C 865.10798 192.05078 863.6543 190.59735 863.6543 188.70703 C 863.6543 186.81671 865.10774 185.36133 866.94727 185.36133 z M 915.63867 193.19727 C 915.64349 193.20536 915.64946 193.21262 915.6543 193.2207 L 916.30078 194.48047 L 906.12305 209.65234 L 895.83789 207.6875 C 895.96803 206.79837 896.30224 204.42148 895.23633 201.38281 L 915.63867 193.19727 z M 882.86523 196.75586 C 887.79849 196.75586 891.76758 200.74785 891.76758 205.75977 C 891.76758 210.77167 887.79837 214.76563 882.86523 214.76562 C 877.9321 214.76562 873.96289 210.77167 873.96289 205.75977 C 873.96289 200.74785 877.9321 196.75586 882.86523 196.75586 z M 920.69922 202.88086 L 926.12695 213.47461 L 914.97656 211.34375 L 920.69922 202.88086 z M 847.30078 203.08008 L 856.25 216.25977 C 856.00727 216.36274 855.76776 216.47258 855.53711 216.59766 L 846.97266 203.71875 L 847.30078 203.08008 z M 820.64453 208.64844 C 823.79642 208.64844 826.31641 211.18021 826.31641 214.39453 C 826.31641 217.60885 823.79642 220.14062 820.64453 220.14062 C 817.49265 220.14062 814.96875 217.60876 814.96875 214.39453 C 814.96875 211.18031 817.49265 208.64844 820.64453 208.64844 z M 895.37695 209.75195 L 904.84375 211.56055 L 886.96875 238.20312 C 886.21451 237.929 885.43439 237.71125 884.60938 237.62695 L 883.99023 218.9375 C 889.35031 218.47402 893.80045 214.74729 895.37695 209.75195 z M 945.86719 212.41992 C 949.04029 212.41992 951.58008 214.96939 951.58008 218.20508 C 951.58008 221.44075 949.04029 223.99219 945.86719 223.99219 C 942.69408 223.99219 940.1543 221.44075 940.1543 218.20508 C 940.1543 214.96925 942.69395 212.41992 945.86719 212.41992 z M 858.73828 219.92383 L 862.00195 224.73047 C 861.46863 225.83782 860.36661 226.58203 859.05664 226.58203 C 857.21711 226.58203 855.76172 225.12864 855.76172 223.23828 C 855.76172 221.46026 857.05461 220.08292 858.73828 219.92383 z M 883.60547 241.75 C 883.60812 241.75 883.61063 241.75 883.61328 241.75 C 883.92681 241.75 884.22802 241.79381 884.52734 241.8418 L 884.09961 242.48047 L 883.60547 241.75 z M 877.97266 248.25 L 880.30078 251.67969 C 880.63008 252.22852 881.0789 252.56604 881.51758 252.91406 C 879.60596 252.16016 878.23087 250.40283 877.97266 248.25 z M 888.55664 250.41016 C 888.40326 250.68265 888.23074 250.93808 888.03711 251.17969 L 888.55664 250.41016 z "
     inkscape:label="foreground" /><metadata
     id="metadata2"><rdf:RDF><cc:Work
         rdf:about=""><dc:title>WinSteward Banner Logo</dc:title><dc:date>September 11, 2024</dc:date><dc:creator><cc:Agent><dc:title>(Holloway) Chew, Kean Ho</dc:title></cc:Agent></dc:creator><dc:rights><cc:Agent><dc:title>Apache 2.0</dc:title></cc:Agent></dc:rights><dc:publisher><cc:Agent><dc:title>(Holloway) Chew, Kean Ho</dc:title></cc:Agent></dc:publisher><dc:identifier>chewkeanho-win-steward</dc:identifier><dc:source>https://github.com/ChewKeanHo/WinSteward</dc:source><dc:relation>app</dc:relation><dc:language>english</dc:language><cc:license
           rdf:resource="http://creativecommons.org/licenses/by-nd/4.0/" /></cc:Work><cc:License
         rdf:about="http://creativecommons.org/licenses/by-nd/4.0/"><cc:permits
           rdf:resource="http://creativecommons.org/ns#Reproduction" /><cc:permits
           rdf:resource="http://creativecommons.org/ns#Distribution" /><cc:requires
           rdf:resource="http://creativecommons.org/ns#Notice" /><cc:requires
           rdf:resource="http://creativecommons.org/ns#Attribution" /></cc:License></rdf:RDF></metadata></svg>
